<?xml version="1.0" standalone="no"?>
<!DOCTYPE svg PUBLIC "-//W3C//DTD SVG 20010904//EN"
 "http://www.w3.org/TR/2001/REC-SVG-20010904/DTD/svg10.dtd">
<svg version="1.0" xmlns="http://www.w3.org/2000/svg"
 width="1024.000000pt" height="1024.000000pt" viewBox="0 0 1024.000000 1024.000000"
 preserveAspectRatio="xMidYMid meet">

<g transform="translate(0.000000,1024.000000) scale(0.100000,-0.100000)"
fill="#000000" stroke="none">
<path d="M5255 7433 c-52 -19 -86 -26 -134 -24 -35 1 -88 -3 -118 -9 -46 -10
-62 -9 -116 9 -95 31 -137 35 -205 17 -70 -18 -133 -54 -177 -102 l-31 -33
-49 16 c-32 10 -87 16 -150 16 -116 1 -166 -16 -237 -81 -31 -28 -59 -43 -98
-52 -30 -7 -81 -25 -113 -41 -49 -25 -69 -29 -140 -29 -221 0 -389 -109 -483
-313 l-24 -53 -81 -19 c-206 -46 -358 -167 -419 -334 -13 -35 -39 -75 -69
-106 -83 -86 -121 -177 -121 -286 l0 -57 -47 -11 c-63 -16 -123 -52 -162 -96
l-31 -36 -44 69 c-25 37 -67 110 -95 162 -61 111 -64 146 -23 229 23 49 27 68
27 146 0 77 -5 100 -30 160 -29 69 -30 73 -30 245 0 198 -6 219 -73 247 -59
25 -119 10 -169 -43 -51 -52 -73 -119 -73 -217 l0 -69 -37 8 c-58 14 -193 11
-247 -5 -31 -9 -65 -29 -92 -55 -35 -34 -43 -50 -49 -92 -4 -34 -2 -62 7 -84
12 -30 12 -38 -7 -74 -25 -52 -24 -109 4 -164 19 -37 20 -48 11 -82 -21 -79
33 -166 137 -218 84 -43 232 -62 331 -43 38 7 45 6 58 -13 148 -211 192 -270
262 -355 45 -56 82 -103 82 -106 0 -2 -26 -22 -58 -44 -73 -49 -163 -145 -192
-206 -29 -61 -29 -140 0 -224 22 -61 22 -67 7 -110 -78 -227 -127 -567 -107
-747 14 -120 32 -186 75 -278 81 -169 242 -289 445 -332 153 -32 289 -35 810
-20 278 8 655 18 838 22 l332 7 0 -571 0 -572 -27 -6 c-160 -35 -215 -59 -239
-105 -8 -17 -12 -35 -7 -39 11 -12 382 -16 392 -4 4 5 13 97 20 204 6 107 23
326 36 485 13 160 29 363 36 453 l13 162 80 1 c45 0 252 6 461 13 209 7 383
10 387 7 8 -7 17 -110 59 -636 16 -214 36 -457 42 -540 l12 -150 193 -3 c169
-2 193 0 199 14 17 45 -77 106 -193 126 l-74 12 0 593 0 593 23 4 c12 2 209 9
437 16 228 6 547 15 709 21 162 5 296 7 298 5 2 -2 -22 -20 -54 -39 -111 -68
-174 -157 -181 -256 -4 -65 19 -111 68 -139 20 -12 32 -29 39 -57 19 -75 69
-104 183 -105 129 -1 141 0 173 18 17 10 48 21 69 25 72 12 111 69 122 182 13
130 -37 269 -116 321 -22 15 -40 34 -40 43 0 15 25 18 203 29 417 24 557 64
685 192 146 147 211 453 191 910 -4 102 -15 235 -24 295 -70 483 -267 897
-596 1252 -133 143 -266 254 -472 393 -55 37 -68 51 -73 80 -9 49 -41 109 -78
148 -67 72 -157 94 -287 71 -41 -7 -78 -13 -83 -14 -5 0 -15 22 -23 49 -17 58
-85 131 -154 164 -65 32 -182 54 -262 50 -68 -3 -69 -3 -114 39 -61 57 -135
84 -254 90 -99 6 -194 -6 -285 -34 l-52 -16 -38 38 c-118 114 -339 158 -499
98z m266 -99 c61 -18 131 -56 150 -82 7 -9 10 -14 5 -10 -4 4 -22 -6 -39 -21
-18 -16 -47 -42 -66 -58 l-35 -30 -45 32 c-25 18 -65 39 -89 46 -30 9 -48 22
-63 45 -11 19 -31 42 -45 53 l-24 19 48 10 c72 15 143 14 203 -4z m-681 -30
c16 -10 18 -13 5 -8 -11 3 -49 10 -85 14 l-65 7 60 1 c38 1 69 -4 85 -14z
m-150 2 c0 -2 -7 -7 -16 -10 -8 -3 -12 -2 -9 4 6 10 25 14 25 6z m465 -43 l47
-38 -78 -12 c-43 -6 -80 -10 -82 -8 -2 2 13 7 34 10 22 4 52 10 68 14 l30 7
-35 21 c-33 21 -39 21 -97 9 -35 -7 -65 -9 -68 -4 -3 4 5 8 18 8 13 1 37 7 53
15 46 21 58 18 110 -22z m-567 -30 c-20 -21 -43 -52 -52 -69 l-15 -32 39 2
c22 1 40 -1 40 -5 0 -4 -25 -9 -55 -11 -30 -1 -55 -2 -55 0 0 14 118 152 129
152 3 0 -11 -17 -31 -37z m365 30 c-7 -2 -19 -2 -25 0 -7 3 -2 5 12 5 14 0 19
-2 13 -5z m-33 -23 c0 -5 -5 -10 -11 -10 -5 0 -7 5 -4 10 3 6 8 10 11 10 2 0
4 -4 4 -10z m-285 -10 c3 -5 1 -10 -4 -10 -6 0 -11 5 -11 10 0 6 2 10 4 10 3
0 8 -4 11 -10z m1598 -10 c21 -6 55 -27 76 -45 36 -33 80 -100 71 -108 -3 -3
-50 0 -105 7 -82 9 -107 16 -140 39 -49 34 -88 34 -148 3 -36 -19 -67 -26
-144 -31 -54 -3 -120 -8 -148 -10 l-50 -5 35 30 c58 50 187 109 275 125 86 16
213 13 278 -5z m-1837 -23 c3 -3 -9 -33 -26 -66 l-31 -62 -47 6 c-57 8 -210
-24 -272 -55 -23 -12 -44 -19 -47 -16 -3 3 2 8 11 12 9 3 45 41 80 84 81 97
112 111 239 106 48 -2 90 -6 93 -9z m619 -7 c-11 -5 -27 -9 -35 -9 -9 0 -8 4
5 9 11 5 27 9 35 9 9 0 8 -4 -5 -9z m-56 -14 c-2 -2 -15 -9 -29 -15 -24 -11
-24 -11 -6 3 16 13 49 24 35 12z m-236 -53 c-7 -2 -19 -2 -25 0 -7 3 -2 5 12
5 14 0 19 -2 13 -5z m132 -3 c-3 -5 -25 -9 -48 -8 l-42 1 45 7 c25 4 46 8 48
8 2 1 0 -2 -3 -8z m550 -39 c25 -11 45 -24 45 -29 0 -9 -124 -42 -158 -42 -8
0 -24 7 -34 16 -35 32 -164 27 -188 -7 -8 -12 -72 19 -65 31 33 53 304 74 400
31z m1270 2 c28 -9 60 -23 73 -31 23 -15 59 -72 46 -72 -17 0 -270 63 -276 69
-4 3 -10 19 -14 35 l-7 29 64 -7 c35 -4 87 -14 114 -23z m-4704 -82 c20 -16
24 -28 23 -73 -1 -29 -3 -105 -5 -168 -2 -113 -2 -117 35 -210 34 -84 38 -102
33 -157 -3 -38 -13 -76 -26 -99 -12 -20 -24 -60 -27 -88 -11 -109 -72 -178
-189 -211 -102 -30 -276 -2 -370 59 -55 36 -77 116 -41 154 45 51 230 68 306
30 52 -27 65 -46 56 -82 -9 -34 -34 -44 -152 -55 -105 -9 -132 -23 -99 -48 16
-12 38 -14 102 -9 108 7 159 23 190 60 22 26 25 37 21 83 -3 30 -1 56 4 59 15
9 48 83 48 106 0 13 -8 40 -18 59 -17 34 -17 37 0 75 33 73 20 141 -36 193
-24 22 -26 32 -26 101 0 128 32 202 100 229 36 14 45 13 71 -8z m1824 -13 c25
-7 45 -15 45 -18 0 -18 -97 -123 -130 -140 -22 -11 -55 -34 -74 -51 l-35 -30
-95 10 c-52 6 -118 11 -146 11 l-51 0 17 32 c22 42 98 123 142 150 83 51 215
66 327 36z m1102 -27 c46 -18 85 -35 87 -39 4 -7 -206 -102 -267 -122 -23 -7
-27 -6 -18 4 19 22 -61 59 -115 53 -51 -5 -108 -40 -124 -76 -17 -37 -25 -111
-11 -111 6 0 11 4 11 8 0 4 9 8 20 8 25 0 27 2 -113 -92 l-122 -82 -3 52 c-5
74 14 160 54 243 27 58 46 81 87 112 98 73 132 82 307 77 112 -3 134 -7 207
-35z m1373 -6 c190 -22 338 -49 459 -85 760 -226 1299 -698 1564 -1371 38 -96
94 -328 119 -492 31 -203 32 -619 1 -782 -50 -271 -155 -396 -368 -439 -90
-19 -386 -46 -492 -46 l-82 0 -5 33 c-3 17 -8 66 -11 107 -10 120 -41 255 -99
432 -86 264 -126 333 -198 344 -29 5 -41 1 -69 -24 -30 -26 -34 -36 -34 -79 0
-28 18 -104 43 -184 23 -74 51 -182 62 -240 22 -113 50 -325 50 -375 l0 -31
-252 -7 c-401 -11 -845 -24 -1528 -46 -349 -11 -837 -24 -1085 -30 -247 -6
-670 -17 -940 -25 -661 -20 -835 -20 -962 2 -57 9 -103 21 -103 25 0 4 5 8 12
8 31 0 161 92 239 169 159 160 231 295 399 751 104 283 229 555 344 750 280
472 619 848 1004 1112 325 223 607 358 937 447 135 36 312 69 425 80 146 14
427 12 570 -4z m-2020 -8 c0 -2 -10 -12 -22 -23 -18 -16 -21 -17 -15 -2 3 9 1
19 -6 22 -7 2 0 5 16 5 15 1 27 -1 27 -2z m-103 -23 c-3 -3 -12 -4 -19 -1 -8
3 -5 6 6 6 11 1 17 -2 13 -5z m-52 -14 c-3 -5 -11 -10 -16 -10 -18 0 -157 -69
-165 -81 -5 -9 -2 -10 12 -5 14 5 12 0 -8 -19 -16 -14 -28 -30 -28 -35 0 -6
-7 -10 -16 -10 -9 0 -12 -5 -8 -12 4 -7 4 -10 -1 -6 -4 4 -14 3 -22 -3 -31
-27 -9 4 27 37 22 20 38 39 35 42 -3 3 -20 -8 -38 -25 -17 -16 -53 -44 -79
-62 -35 -23 -46 -36 -41 -49 6 -15 5 -15 -10 -3 -9 7 -17 16 -17 20 0 3 21 19
48 35 26 17 67 46 92 66 63 52 116 84 180 108 66 25 63 24 55 12z m36 -23 c-6
-8 -7 -18 -3 -22 4 -5 1 -5 -5 -1 -8 4 -13 2 -13 -5 0 -7 -7 -4 -16 7 -8 10
-13 13 -9 7 4 -9 1 -11 -9 -7 -9 4 -18 -1 -22 -10 -3 -9 -12 -16 -20 -16 -8 0
-14 -3 -14 -7 0 -5 -15 -8 -34 -8 -19 0 -32 3 -29 8 2 4 11 7 19 7 8 0 14 5
14 10 0 6 3 9 8 8 4 0 25 7 46 16 21 10 47 15 58 13 10 -3 21 -1 24 4 3 5 8 9
11 9 3 0 0 -6 -6 -13z m3040 -27 c33 -9 78 -45 68 -54 -2 -2 -35 12 -74 30
-69 32 -66 44 6 24z m-3021 -27 c0 -8 -4 -12 -9 -9 -5 4 -11 0 -14 -6 -3 -7
-5 -4 -4 8 1 23 27 29 27 7z m5 -46 c-8 -20 -15 -46 -15 -57 0 -11 -4 -20 -9
-20 -6 0 -6 13 0 33 13 45 31 88 35 84 3 -2 -3 -20 -11 -40z m-35 -32 c-6 -25
-5 -44 0 -49 6 -6 10 -12 10 -15 0 -4 -51 -6 -113 -6 -96 -1 -124 -5 -197 -29
-98 -33 -151 -58 -169 -80 -20 -24 -33 -19 -19 8 13 24 74 96 82 96 2 0 7 -7
10 -16 3 -8 2 -12 -4 -9 -6 3 -10 1 -10 -4 0 -16 17 -13 95 15 39 14 56 23 38
20 -27 -4 -31 -3 -26 11 4 11 3 14 -5 9 -7 -4 -12 -3 -12 2 0 5 18 9 39 8 22
0 35 -4 29 -7 -22 -14 11 -17 127 -11 66 3 115 7 109 9 -8 3 -7 17 4 49 18 54
24 53 12 -1z m-195 -46 c-29 -11 -32 -11 -32 4 0 9 9 12 26 9 23 -5 24 -6 6
-13z m-2274 -19 c112 -21 169 -68 169 -138 0 -50 -21 -57 -87 -32 -74 28 -214
31 -287 5 -58 -20 -67 -14 -68 45 -1 95 121 149 273 120z m2136 -5 c0 -8 -4
-12 -9 -9 -4 3 -8 9 -8 15 0 5 4 9 8 9 5 0 9 -7 9 -15z m-271 -48 c9 -9 -21
-99 -36 -107 -8 -4 -62 -15 -120 -25 -186 -30 -330 -90 -426 -177 -60 -55 -92
-117 -106 -205 -6 -34 -14 -60 -18 -58 -4 3 -18 -20 -30 -50 -25 -61 -23 -121
5 -175 15 -28 14 -30 -12 -45 l-28 -15 30 5 c21 4 11 -4 -35 -29 -36 -18 -68
-32 -72 -30 -12 8 -47 132 -59 207 -20 131 24 257 110 311 31 20 43 36 56 78
39 119 109 214 150 202 15 -4 16 -3 6 4 -11 8 -9 13 10 25 40 26 100 49 116
43 8 -3 12 -2 9 3 -5 8 74 33 144 45 29 5 300 -1 306 -7z m607 -77 c3 -3 7
-34 8 -70 l3 -65 -56 -43 -57 -42 -25 25 c-33 33 -102 34 -158 3 -47 -27 -68
-63 -68 -115 1 -40 32 -89 50 -78 27 16 4 -15 -56 -76 l-65 -69 -41 87 c-52
111 -61 188 -29 251 49 97 137 159 265 188 56 12 218 15 229 4z m-2421 -95
c24 -9 59 -28 77 -43 27 -22 33 -35 33 -65 0 -22 -7 -46 -17 -57 -15 -17 -21
-18 -44 -6 -82 42 -202 44 -311 5 -52 -18 -56 -18 -68 -2 -8 11 -12 38 -10 67
3 55 23 76 94 101 53 19 189 19 246 0z m1808 -76 c0 -5 -5 -7 -10 -4 -7 4 -9
-3 -5 -22 l7 -28 -14 25 c-14 26 -20 27 -103 16 -75 -11 -129 -24 -188 -46
-61 -23 -72 -25 -37 -5 79 45 350 95 350 64z m-93 -35 c-3 -3 -12 -4 -19 -1
-8 3 -5 6 6 6 11 1 17 -2 13 -5z m103 -208 c28 -65 24 -71 -7 -12 -19 37 -26
68 -28 125 l-4 76 9 -71 c5 -38 18 -92 30 -118z m-345 154 c-3 -5 -12 -10 -18
-10 -7 0 -6 4 3 10 19 12 23 12 15 0z m-94 -24 c-9 -11 -9 -15 1 -19 7 -2 2
-2 -11 0 -21 4 -23 2 -12 -11 8 -10 9 -16 3 -16 -6 0 -12 6 -15 13 -3 9 -7 9
-20 -2 -10 -7 -17 -18 -17 -23 0 -6 7 -5 15 2 10 9 15 9 15 1 0 -6 -5 -11 -11
-11 -5 0 -7 -4 -4 -10 3 -5 2 -10 -4 -10 -5 0 -11 6 -14 13 -2 7 -13 -3 -25
-23 -12 -19 -22 -30 -22 -25 0 22 42 76 81 105 46 33 58 38 40 16z m389 4 c0
-5 -5 -10 -11 -10 -5 0 -7 5 -4 10 3 6 8 10 11 10 2 0 4 -4 4 -10z m-57 -83
c11 -35 -13 -67 -53 -67 -32 0 -50 17 -50 46 0 58 85 75 103 21z m-252 -123
c15 -41 -26 -87 -59 -65 -19 11 -33 79 -18 85 26 12 69 0 77 -20z m-176 -114
c10 -19 30 -51 44 -70 l25 -35 -26 23 c-37 33 -76 111 -83 163 l-5 44 13 -45
c8 -25 22 -61 32 -80z m585 78 c0 -4 -10 -8 -22 -7 -21 0 -21 1 -4 8 14 5 16
10 8 15 -7 4 -12 13 -12 19 1 13 30 -22 30 -35z m-280 -32 c0 -2 -29 -18 -64
-35 -41 -20 -82 -50 -110 -82 -25 -28 -46 -47 -46 -41 0 21 98 106 155 133 63
30 65 31 65 25z m-120 -30 c0 -2 -7 -7 -16 -10 -8 -3 -12 -2 -9 4 6 10 25 14
25 6z m420 -74 c0 -7 -34 -51 -103 -134 -19 -22 -30 -29 -33 -20 -9 19 -72 4
-113 -26 -53 -39 -77 -123 -50 -173 9 -17 13 -18 26 -8 15 13 -13 -42 -85
-165 l-40 -69 -31 43 c-69 96 -80 243 -26 350 77 154 171 206 373 209 45 1 82
-2 82 -7z m-1057 -162 c38 -126 38 -126 -30 -146 -56 -16 -57 -16 -75 6 -10
12 -15 27 -11 33 3 5 1 7 -4 4 -11 -7 -73 56 -73 74 0 6 4 8 9 5 5 -4 7 3 4
14 -9 35 73 95 137 99 11 1 23 -25 43 -89z m471 -77 c-8 -25 -14 -59 -14 -74
0 -45 -10 -59 -42 -59 -73 0 -158 -90 -158 -168 0 -60 87 -141 150 -142 42 0
115 42 113 65 -1 14 11 5 42 -30 l43 -50 -19 -37 c-11 -21 -26 -38 -34 -38 -9
0 -52 18 -98 41 -167 83 -387 234 -387 265 0 30 40 91 92 140 76 72 151 108
262 124 28 4 54 8 58 9 3 0 0 -20 -8 -46z m-684 -328 l23 -25 -55 -57 c-68
-72 -142 -182 -173 -259 l-24 -59 -21 48 c-32 73 -36 135 -12 184 33 64 183
191 228 193 6 0 21 -11 34 -25z m243 -536 c44 -24 50 -64 13 -98 -22 -21 -28
-22 -60 -11 -38 12 -51 37 -42 75 5 19 29 35 64 44 2 1 13 -4 25 -10z m-181
-146 c-6 -2 -10 -8 -7 -13 3 -4 -2 -10 -10 -14 -8 -3 -15 -2 -15 2 0 12 23 32
35 31 5 0 4 -3 -3 -6z m11 -44 c-6 -6 -19 -9 -29 -6 -16 4 -15 5 4 6 12 0 22
6 22 13 0 6 3 8 7 5 4 -4 2 -12 -4 -18z m315 -71 c7 -7 12 -21 12 -33 0 -46
-64 -64 -79 -22 -18 49 32 90 67 55z m-450 -61 c13 -11 17 -63 4 -71 -5 -3 -7
9 -5 27 l2 32 -8 -34 c-13 -48 -51 -67 -79 -39 -13 13 -16 67 -4 84 15 23 61
24 90 1z m262 -171 c0 -2 -13 -6 -30 -8 -16 -3 -30 -1 -30 4 0 4 14 8 30 8 17
0 30 -2 30 -4z m14 -41 c-3 -7 -11 -16 -18 -18 -11 -4 -11 0 -2 18 11 24 29
25 20 0z m-67 -7 c-3 -8 -6 -5 -6 6 -1 11 2 17 5 13 3 -3 4 -12 1 -19z m43 18
c0 -11 -19 -15 -25 -6 -3 5 1 10 9 10 9 0 16 -2 16 -4z m-180 -245 c15 -29 12
-67 -6 -82 -19 -15 -71 -14 -92 3 -15 13 -10 61 9 85 18 20 76 17 89 -6z
m5098 -490 c76 -39 115 -101 133 -208 9 -53 9 -83 0 -123 -14 -66 -34 -90 -76
-90 -17 0 -46 -11 -64 -24 -30 -23 -41 -24 -134 -22 -56 1 -112 8 -124 14 -27
15 -36 67 -24 147 7 48 6 63 -6 75 -13 13 -16 13 -28 -4 -8 -11 -18 -34 -21
-53 -7 -39 -17 -41 -38 -11 -56 79 36 235 175 297 59 27 156 28 207 2z"/>
<path d="M4390 5651 c-86 -28 -157 -89 -202 -173 -20 -37 -23 -58 -23 -143 0
-89 3 -106 27 -150 32 -62 103 -129 166 -157 68 -31 190 -30 255 1 66 32 142
107 169 166 19 41 23 67 23 140 -1 77 -5 97 -27 140 -33 65 -101 132 -158 158
-49 22 -185 33 -230 18z m7 -103 c47 -44 14 -118 -53 -118 -40 0 -64 29 -64
77 0 58 72 84 117 41z"/>
<path d="M6277 5646 c-142 -53 -224 -181 -215 -335 8 -130 67 -219 183 -276
49 -24 71 -29 139 -29 84 0 125 14 200 68 45 32 103 130 117 194 30 146 -50
303 -186 363 -63 28 -183 36 -238 15z m8 -101 c30 -30 31 -54 4 -89 -38 -49
-129 -20 -129 41 0 32 43 73 75 73 14 0 37 -11 50 -25z"/>
<path d="M4900 4888 c-11 -18 -19 -37 -17 -43 2 -5 28 -23 59 -39 l56 -31 -5
-55 c-6 -68 18 -176 54 -243 15 -27 54 -73 86 -102 74 -67 147 -90 264 -83 99
6 158 35 234 115 82 86 105 140 118 277 l6 69 70 29 c96 40 104 49 81 93 -19
34 -43 44 -61 26 -19 -19 -191 -70 -274 -82 -131 -18 -335 -7 -444 25 -49 15
-105 35 -125 45 -71 36 -80 35 -102 -1z m395 -333 c76 -20 189 -72 212 -97 17
-19 17 -21 -6 -39 -54 -44 -174 -49 -249 -10 -52 27 -100 75 -117 116 -8 19
-15 37 -15 40 0 11 119 4 175 -10z"/>
<path d="M2433 5802 c-8 -5 4 -8 26 -8 22 1 37 4 34 9 -6 9 -45 9 -60 -1z"/>
<path d="M2198 4393 c7 -3 16 -2 19 1 4 3 -2 6 -13 5 -11 0 -14 -3 -6 -6z"/>
<path d="M2285 4033 c11 -3 27 -10 35 -17 13 -10 13 -9 1 7 -7 9 -23 16 -35
16 -20 -1 -20 -2 -1 -6z"/>
</g>
</svg>
